<svg xmlns="http://www.w3.org/2000/svg" width="167" height="52" viewBox="0 0 167 52">
  <g id="Group_301" data-name="Group 301" transform="translate(-2537 -5977)">
    <rect id="Rectangle_1519" data-name="Rectangle 1519" width="167" height="52" transform="translate(2537 5977)" fill="#2c2f34"/>
    <g id="Layer_2" data-name="Layer 2" transform="translate(2542.765 5985.144)">
      <g id="Layer_1" data-name="Layer 1" transform="translate(-0.007 -0.001)">
        <path id="Path_214" data-name="Path 214" d="M63.6,50.872a.929.929,0,0,1-.914-.765,6.032,6.032,0,0,0-11.876,0,.93.93,0,0,1-1.83-.33,7.893,7.893,0,0,1,15.533,0,.931.931,0,0,1-.754,1.082A1,1,0,0,1,63.6,50.872Z" transform="translate(-39.73 -35.203)" fill="#f69320"/>
        <path id="Path_215" data-name="Path 215" d="M50.379,31.2a1.027,1.027,0,0,1-.98-.722,10.221,10.221,0,0,0-19.507-.032,1.024,1.024,0,1,1-1.955-.613,12.273,12.273,0,0,1,23.42.047,1.022,1.022,0,0,1-.677,1.282A.988.988,0,0,1,50.379,31.2Z" transform="translate(-22.631 -17.247)" fill="#f69320"/>
        <path id="Path_216" data-name="Path 216" d="M38.961,11.623a1.025,1.025,0,0,1-.952-.647,14.236,14.236,0,0,0-26.4-.043,1.025,1.025,0,1,1-1.9-.754A16.289,16.289,0,0,1,35.949,4.407a16.1,16.1,0,0,1,3.959,5.81,1.022,1.022,0,0,1-.566,1.331,1.009,1.009,0,0,1-.381.075Z" transform="translate(-7.794 0.001)" fill="#f69320"/>
        <path id="Path_217" data-name="Path 217" d="M75.207,67.982a90.818,90.818,0,1,1,0,.009Z" transform="translate(-55.357 -54.37)" fill="#f69320"/>
        <path id="Path_218" data-name="Path 218" d="M38.876,87.42h-4.92a9.3,9.3,0,0,1-.045,1.1,8.99,8.99,0,0,1-17.927-1.1H9.75c0,.26.021.517.03.775a15.209,15.209,0,0,0,30.287,1.246c.011-.085.03-.164.04-.249a15.166,15.166,0,0,0,.083-1.772Z" transform="translate(-7.911 -71.187)" fill="#565757"/>
        <path id="Path_219" data-name="Path 219" d="M58.409,88.263a6.641,6.641,0,0,1-13.243-.843H42.816a8.99,8.99,0,0,0,17.927,1.1,9.3,9.3,0,0,0,.045-1.1H58.441a6.334,6.334,0,0,1-.032.843Z" transform="translate(-34.743 -71.097)" fill="#777677"/>
        <path id="Path_220" data-name="Path 220" d="M148.106,101.7l4.724,4.191a.7.7,0,0,1,.307,1.035l-.78,1.521L146.92,105.5A8.756,8.756,0,0,0,148.106,101.7Z" transform="translate(-119.223 -82.696)" fill="#565757"/>
        <path id="Path_221" data-name="Path 221" d="M140.91,123.534a4.386,4.386,0,0,0,1.11-1.734l5.437,2.946-.79,1.25s-.189.221-.639,0S140.91,123.534,140.91,123.534Z" transform="translate(-114.346 -99.024)" fill="#f69320"/>
        <path id="Path_222" data-name="Path 222" d="M115.707,142.05l.579,6.285a.7.7,0,0,1-.484.969l-1.61.566L112.24,144A8.787,8.787,0,0,0,115.707,142.05Z" transform="translate(-91.081 -115.518)" fill="#565757"/>
        <path id="Path_223" data-name="Path 223" d="M101.6,152.833a4.4,4.4,0,0,0,1.994-.5l1.953,5.866-1.433.377s-.288.028-.471-.432S101.6,152.833,101.6,152.833Z" transform="translate(-82.446 -123.861)" fill="#f69320"/>
        <path id="Path_224" data-name="Path 224" d="M55.411,151.155l-4.072,4.822a.7.7,0,0,1-1.029.334c-.754-.366-1.54-.745-1.54-.745l2.813-5.506A8.749,8.749,0,0,0,55.411,151.155Z" transform="translate(-39.575 -122.018)" fill="#565757"/>
        <path id="Path_225" data-name="Path 225" d="M43.941,144.28a4.351,4.351,0,0,0,1.759,1.067l-2.813,5.508-1.271-.754s-.222-.189-.021-.639S43.941,144.28,43.941,144.28Z" transform="translate(-33.685 -117.328)" fill="#f69320"/>
        <path id="Path_226" data-name="Path 226" d="M10.143,120.975l-6.243.892a.706.706,0,0,1-1-.437c-.32-.779-.652-1.582-.652-1.582l5.761-2.238a8.769,8.769,0,0,0,2.132,3.365Z" transform="translate(-1.825 -95.618)" fill="#565757"/>
        <path id="Path_227" data-name="Path 227" d="M5.6,107.1a4.394,4.394,0,0,0,.6,1.968L.438,111.309-.005,109.9s-.045-.288.407-.492S5.6,107.1,5.6,107.1Z" transform="translate(0.007 -87.072)" fill="#f69320"/>
        <path id="Path_228" data-name="Path 228" d="M213.6,44.109,208.63,36.28h3.323l3.084,5.19,3.139-5.19h3.231l-4.967,7.774v5.152H213.6Z" transform="translate(-169.301 -29.517)" fill="#fff"/>
        <path id="Path_229" data-name="Path 229" d="M271.31,58.938V58.9c0-2.16,1.644-3.157,3.989-3.157a7.044,7.044,0,0,1,2.419.411V55.99c0-1.163-.72-1.81-2.123-1.81a7.3,7.3,0,0,0-2.733.535l-.7-2.141A8.722,8.722,0,0,1,276,51.78a4.566,4.566,0,0,1,3.342,1.108,4.306,4.306,0,0,1,1.071,3.156v5.744H277.7V60.712a3.81,3.81,0,0,1-2.99,1.255C272.843,61.967,271.31,60.9,271.31,58.938Zm6.445-.647v-.5a4.336,4.336,0,0,0-1.791-.377c-1.2,0-1.94.481-1.94,1.367v.036c0,.754.628,1.2,1.533,1.2C276.869,60.027,277.755,59.307,277.755,58.291Z" transform="translate(-220.165 -42.114)" fill="#fff"/>
        <path id="Path_230" data-name="Path 230" d="M332.43,51.555h2.807v1.4a3.5,3.5,0,0,1,2.9-1.587c2.124,0,3.361,1.4,3.361,3.674v6.409h-2.807V55.93c0-1.32-.628-2.013-1.7-2.013s-1.753.684-1.753,2.013v5.521H332.43Z" transform="translate(-269.763 -41.782)" fill="#fff"/>
        <path id="Path_231" data-name="Path 231" d="M390.81,48.557v-4.7h-1.18v-2.4h1.18V38.93h2.807v2.53h2.326v2.4h-2.326v4.228c0,.647.277.959.9.959a2.852,2.852,0,0,0,1.386-.351v2.262a4.147,4.147,0,0,1-2.217.566C391.973,51.522,390.81,50.838,390.81,48.557Z" transform="translate(-316.181 -31.672)" fill="#fff"/>
        <path id="Path_232" data-name="Path 232" d="M434.09,51.531H436.9v1.993a3.04,3.04,0,0,1,3.157-2.177v2.935h-.149c-1.864,0-3.016,1.131-3.016,3.489v3.657h-2.8Z" transform="translate(-352.26 -41.758)" fill="#fff"/>
        <path id="Path_233" data-name="Path 233" d="M469.45,58.938V58.9c0-2.16,1.644-3.157,3.987-3.157a7.065,7.065,0,0,1,2.42.411v-.166c0-1.163-.72-1.81-2.124-1.81a7.286,7.286,0,0,0-2.731.535l-.694-2.141a8.726,8.726,0,0,1,3.842-.794,4.558,4.558,0,0,1,3.34,1.108,4.306,4.306,0,0,1,1.073,3.156v5.744h-2.715V60.712a3.817,3.817,0,0,1-2.992,1.255C470.983,61.967,469.45,60.9,469.45,58.938Zm6.443-.647v-.5a4.335,4.335,0,0,0-1.791-.377c-1.2,0-1.938.481-1.938,1.367v.036c0,.754.628,1.2,1.533,1.2C475.007,60.027,475.893,59.307,475.893,58.291Z" transform="translate(-380.954 -42.114)" fill="#fff"/>
        <path id="Path_234" data-name="Path 234" d="M528.7,46.158l4.3-3.527c1.606-1.32,2.234-2.032,2.234-3.1a1.593,1.593,0,0,0-1.734-1.68c-1.016,0-1.681.554-2.639,1.736l-1.994-1.606c1.274-1.736,2.511-2.679,4.82-2.679,2.677,0,4.449,1.57,4.449,3.989v.038c0,2.16-1.106,3.231-3.393,5l-2.106,1.625h5.633V48.4H528.7Z" transform="translate(-429.035 -28.72)" fill="#f69320"/>
        <path id="Path_235" data-name="Path 235" d="M593.265,46.02H586.95l-.46-2.013,7.09-8.217h2.4v7.917h1.729V46.02h-1.736v2.788h-2.714Zm0-2.309V39.686l-3.435,4.025Z" transform="translate(-475.931 -29.119)" fill="#f69320"/>
        <path id="Path_236" data-name="Path 236" d="M658.111,59.163l-1.994,3.084H653.18l3.472-5.024L653.31,52.35h3.016l1.847,2.9,1.864-2.9h2.929l-3.342,4.835,3.489,5.06H660.1Z" transform="translate(-530.05 -42.578)" fill="#f69320"/>
        <path id="Path_237" data-name="Path 237" d="M720.862,38.761H714.79V36.31h9.3v2.136L718.3,49.23h-3.2Z" transform="translate(-580.046 -29.542)" fill="#f69320"/>
        <rect id="Rectangle_1076" data-name="Rectangle 1076" width="106.429" height="0.696" transform="translate(39.116 21.117)" fill="#f69320"/>
        <path id="Path_238" data-name="Path 238" d="M236.338,126.16a.164.164,0,0,1,.162-.16h1.41c.943,0,1.608.488,1.608,1.32v.013c0,.909-.786,1.378-1.7,1.378h-1.169v1.48a.162.162,0,0,1-.322,0Zm1.508,2.262c.8,0,1.348-.42,1.348-1.063v-.013c0-.686-.532-1.046-1.31-1.046h-1.225v2.123Z" transform="translate(-191.779 -102.439)" fill="#fff"/>
        <path id="Path_239" data-name="Path 239" d="M263.089,132.173a.147.147,0,0,1,.147-.155.149.149,0,0,1,.155.155v.769a1.5,1.5,0,0,1,1.269-.943.168.168,0,0,1,0,.334,1.422,1.422,0,0,0-1.269,1.578v1.163a.147.147,0,0,1-.147.155.149.149,0,0,1-.155-.155Z" transform="translate(-213.494 -107.31)" fill="#fff"/>
        <path id="Path_240" data-name="Path 240" d="M279.4,133.5v-.013a1.631,1.631,0,0,1,1.627-1.651,1.612,1.612,0,0,1,1.614,1.64v.011a1.631,1.631,0,0,1-1.627,1.651A1.612,1.612,0,0,1,279.4,133.5Zm2.912,0v-.013a1.32,1.32,0,0,0-1.3-1.367,1.3,1.3,0,0,0-1.286,1.355v.011a1.32,1.32,0,0,0,1.3,1.367,1.3,1.3,0,0,0,1.286-1.353Z" transform="translate(-226.729 -107.18)" fill="#fff"/>
        <path id="Path_241" data-name="Path 241" d="M305.612,126.573h-.341a.139.139,0,0,1-.141-.141.143.143,0,0,1,.141-.138h.341v-.309a1.131,1.131,0,0,1,.277-.822.909.909,0,0,1,.664-.247,1.508,1.508,0,0,1,.377.043.143.143,0,0,1,.117.141.138.138,0,0,1-.173.13,1.66,1.66,0,0,0-.32-.038c-.434,0-.637.26-.637.8v.3h.982a.141.141,0,0,1,.143.143.143.143,0,0,1-.143.136h-.982v2.747a.149.149,0,0,1-.149.155.153.153,0,0,1-.155-.155Zm2.06-1.361a.189.189,0,1,1,.377,0v.106a.189.189,0,1,1-.377,0Zm.036,1.212a.153.153,0,1,1,.3,0v2.9a.145.145,0,0,1-.149.155.149.149,0,0,1-.155-.155Z" transform="translate(-247.61 -101.558)" fill="#fff"/>
        <path id="Path_242" data-name="Path 242" d="M330.721,130.1v-2.074h-.337a.149.149,0,0,1-.143-.141.143.143,0,0,1,.143-.138h.339v-.878a.149.149,0,0,1,.149-.155.153.153,0,0,1,.155.155v.878h.99a.149.149,0,0,1,.143.143.143.143,0,0,1-.143.136h-.992v2.036a.553.553,0,0,0,.631.611,1.345,1.345,0,0,0,.358-.06.139.139,0,0,1,.136.136.136.136,0,0,1-.1.13,1.3,1.3,0,0,1-.445.081A.8.8,0,0,1,330.721,130.1Z" transform="translate(-267.986 -103.015)" fill="#fff"/>
        <path id="Path_243" data-name="Path 243" d="M348.865,134.779a.164.164,0,0,1-.055-.117.151.151,0,0,1,.149-.149.189.189,0,0,1,.1.03,1.77,1.77,0,0,0,1.052.36c.426,0,.754-.236.754-.6v-.013c0-.377-.4-.507-.835-.632-.515-.149-1.084-.3-1.084-.865v-.013a.928.928,0,0,1,1.04-.871,2.168,2.168,0,0,1,1.02.283.168.168,0,0,1,.081.138.151.151,0,0,1-.149.147.153.153,0,0,1-.087-.025,1.749,1.749,0,0,0-.878-.26c-.434,0-.718.236-.718.552v.011c0,.352.428.483.878.613.507.141,1.041.328,1.041.884v.013a.977.977,0,0,1-1.09.922A2.173,2.173,0,0,1,348.865,134.779Z" transform="translate(-283.056 -107.237)" fill="#fff"/>
        <path id="Path_244" data-name="Path 244" d="M386.646,132.173a.147.147,0,0,1,.147-.155.151.151,0,0,1,.156.155v.769a1.494,1.494,0,0,1,1.267-.943.168.168,0,0,1,0,.334,1.421,1.421,0,0,0-1.267,1.578v1.163a.153.153,0,1,1-.3,0Z" transform="translate(-313.758 -107.31)" fill="#fff"/>
        <path id="Path_245" data-name="Path 245" d="M403,133.5v-.013a1.631,1.631,0,0,1,1.627-1.651,1.612,1.612,0,0,1,1.614,1.64v.011a1.631,1.631,0,0,1-1.627,1.651A1.612,1.612,0,0,1,403,133.5Zm2.912,0v-.013a1.32,1.32,0,0,0-1.3-1.367,1.3,1.3,0,0,0-1.286,1.355v.011a1.32,1.32,0,0,0,1.3,1.367A1.3,1.3,0,0,0,405.9,133.5Z" transform="translate(-327.03 -107.18)" fill="#fff"/>
        <path id="Path_246" data-name="Path 246" d="M432.664,135.125a.147.147,0,0,1-.147.155.149.149,0,0,1-.155-.155v-.458a1.236,1.236,0,0,1-1.131.662,1.2,1.2,0,0,1-1.263-1.3v-1.8a.145.145,0,0,1,.149-.155.149.149,0,0,1,.155.155v1.746a.964.964,0,0,0,1,1.076,1.082,1.082,0,0,0,1.1-1.131v-1.7a.145.145,0,0,1,.147-.155.149.149,0,0,1,.155.155Z" transform="translate(-348.915 -107.366)" fill="#fff"/>
        <path id="Path_247" data-name="Path 247" d="M455.5,132.041a.153.153,0,1,1,.3,0v.458a1.237,1.237,0,0,1,1.131-.662,1.2,1.2,0,0,1,1.261,1.3v1.8a.145.145,0,0,1-.149.155.149.149,0,0,1-.153-.155v-1.749a.964.964,0,0,0-1-1.076,1.082,1.082,0,0,0-1.1,1.131v1.7a.145.145,0,0,1-.149.155.149.149,0,0,1-.155-.155Z" transform="translate(-369.625 -107.178)" fill="#fff"/>
        <path id="Path_248" data-name="Path 248" d="M482.849,129.291a.145.145,0,0,1-.149.155.149.149,0,0,1-.155-.155v-.575a1.524,1.524,0,0,1-1.3.779,1.566,1.566,0,0,1-1.534-1.638v-.013a1.578,1.578,0,0,1,1.534-1.651,1.519,1.519,0,0,1,1.3.754v-1.911a.145.145,0,0,1,.149-.155.149.149,0,0,1,.155.155Zm-2.809-1.459v.011a1.269,1.269,0,0,0,1.237,1.361,1.32,1.32,0,0,0,1.288-1.355v-.011a1.319,1.319,0,0,0-1.288-1.355A1.23,1.23,0,0,0,480.04,127.832Z" transform="translate(-389.281 -101.529)" fill="#fff"/>
        <path id="Path_249" data-name="Path 249" d="M521.422,130.1v-2.074h-.341a.147.147,0,0,1-.141-.141.143.143,0,0,1,.141-.138h.341v-.878a.149.149,0,0,1,.149-.155.153.153,0,0,1,.155.155v.878h.99a.149.149,0,0,1,.141.143.143.143,0,0,1-.141.136h-.99v2.036a.552.552,0,0,0,.63.611,1.363,1.363,0,0,0,.36-.06.139.139,0,0,1,.136.136.138.138,0,0,1-.1.13,1.294,1.294,0,0,1-.445.081A.8.8,0,0,1,521.422,130.1Z" transform="translate(-422.738 -103.015)" fill="#fff"/>
        <path id="Path_250" data-name="Path 250" d="M540.857,125.035a.149.149,0,0,1,.149-.155.153.153,0,0,1,.155.155v1.819a1.233,1.233,0,0,1,1.131-.662,1.2,1.2,0,0,1,1.261,1.3v1.8a.145.145,0,0,1-.149.155.151.151,0,0,1-.155-.155v-1.749a.962.962,0,0,0-1-1.076,1.08,1.08,0,0,0-1.1,1.131v1.7a.145.145,0,0,1-.149.155.149.149,0,0,1-.154-.155Z" transform="translate(-438.894 -101.53)" fill="#fff"/>
        <path id="Path_251" data-name="Path 251" d="M566.558,135.143a1.568,1.568,0,0,1-1.548-1.646v-.011a1.554,1.554,0,0,1,1.5-1.646,1.493,1.493,0,0,1,1.448,1.632.153.153,0,0,1-.147.143h-2.475a1.25,1.25,0,0,0,1.237,1.242,1.4,1.4,0,0,0,1.022-.432.126.126,0,0,1,.1-.043.143.143,0,0,1,.149.141.153.153,0,0,1-.049.106A1.6,1.6,0,0,1,566.558,135.143Zm1.069-1.8a1.167,1.167,0,0,0-1.131-1.223,1.228,1.228,0,0,0-1.163,1.223Z" transform="translate(-458.5 -107.18)" fill="#fff"/>
        <path id="Path_252" data-name="Path 252" d="M604.321,133.5v-.013a1.638,1.638,0,0,1,1.608-1.651,1.657,1.657,0,0,1,1.188.5.166.166,0,0,1,.043.111.153.153,0,0,1-.155.155.157.157,0,0,1-.106-.038,1.368,1.368,0,0,0-.976-.445,1.3,1.3,0,0,0-1.274,1.355v.011a1.32,1.32,0,0,0,1.3,1.367,1.4,1.4,0,0,0,.99-.451.138.138,0,0,1,.1-.049.158.158,0,0,1,.149.147.134.134,0,0,1-.038.094,1.617,1.617,0,0,1-2.828-1.1Z" transform="translate(-490.399 -107.18)" fill="#fff"/>
        <path id="Path_253" data-name="Path 253" d="M629.6,125.035a.147.147,0,0,1,.147-.155.155.155,0,0,1,.156.155v4.257a.145.145,0,0,1-.149.155.149.149,0,0,1-.155-.155Z" transform="translate(-510.914 -101.53)" fill="#fff"/>
        <path id="Path_254" data-name="Path 254" d="M641.539,133.5v-.013a1.631,1.631,0,0,1,1.627-1.651,1.614,1.614,0,0,1,1.616,1.64v.011a1.631,1.631,0,0,1-1.627,1.651,1.612,1.612,0,0,1-1.616-1.638Zm2.914,0v-.013a1.32,1.32,0,0,0-1.3-1.367,1.3,1.3,0,0,0-1.288,1.355v.011a1.319,1.319,0,0,0,1.3,1.367,1.3,1.3,0,0,0,1.287-1.353Z" transform="translate(-520.603 -107.18)" fill="#fff"/>
        <path id="Path_255" data-name="Path 255" d="M667.7,133.5v-.013a1.638,1.638,0,0,1,1.608-1.651,1.657,1.657,0,0,1,1.188.5.167.167,0,0,1,.043.111.153.153,0,0,1-.155.155.164.164,0,0,1-.106-.038,1.369,1.369,0,0,0-.976-.445,1.3,1.3,0,0,0-1.274,1.355v.011a1.319,1.319,0,0,0,1.3,1.367,1.391,1.391,0,0,0,.99-.451.142.142,0,0,1,.1-.049.158.158,0,0,1,.147.147.142.142,0,0,1-.036.094,1.619,1.619,0,0,1-2.828-1.1Z" transform="translate(-541.832 -107.18)" fill="#fff"/>
        <path id="Path_256" data-name="Path 256" d="M692.739,125.035a.149.149,0,0,1,.149-.155.153.153,0,0,1,.155.155V128.3l1.936-2a.138.138,0,0,1,.106-.043.141.141,0,0,1,.141.143.124.124,0,0,1-.049.1l-1.157,1.176,1.238,1.527a.167.167,0,0,1,.043.113.138.138,0,0,1-.149.141.155.155,0,0,1-.13-.068l-1.212-1.5-.767.773v.637a.145.145,0,0,1-.149.155.149.149,0,0,1-.155-.155Z" transform="translate(-562.152 -101.53)" fill="#fff"/>
        <path id="Path_257" data-name="Path 257" d="M716.124,146.047a.188.188,0,0,1,.2.2v.164a.2.2,0,1,1-.407,0v-.168a.2.2,0,0,1,.2-.2Z" transform="translate(-580.963 -118.712)" fill="#fff"/>
        <path id="Path_258" data-name="Path 258" d="M728.814,146.049a.2.2,0,0,1,.206.2v.164a.205.205,0,0,1-.409,0v-.168a.2.2,0,0,1,.2-.2Z" transform="translate(-591.261 -118.715)" fill="#fff"/>
        <path id="Path_259" data-name="Path 259" d="M741.515,146.049a.2.2,0,0,1,.2.2v.164a.205.205,0,0,1-.409,0v-.168a.2.2,0,0,1,.206-.2Z" transform="translate(-601.567 -118.715)" fill="#fff"/>
      </g>
    </g>
  </g>
</svg>
